<?xml version="1.0" encoding="utf-8"?>
<!-- Generator: Adobe Illustrator 19.1.0, SVG Export Plug-In . SVG Version: 6.00 Build 0)  -->
<svg version="1.1" id="Layer_1" xmlns="http://www.w3.org/2000/svg" xmlns:xlink="http://www.w3.org/1999/xlink" x="0px" y="0px"
	 viewBox="0 0 40 35" style="enable-background:new 0 0 40 35;" xml:space="preserve">
<rect x="2" y="7.1" width="25.1" height="4.2"/>
<rect x="2" y="16.1" width="25.1" height="4.2"/>
<rect x="7" y="25.1" width="15.1" height="4.2"/>
<g>
	<path d="M36.1,8.7c-2.3-1.9-4.7-1.9-6.5-1.7v4c1.4-0.2,2.8-0.2,3.9,0.8c0.3,0.2,0.7,0.7,0.7,1.8c0,1.1-0.4,1.5-0.6,1.8
		c-1.2,1-2.7,0.9-4,0.8v4c0.4,0,1,0.1,1.5,0.1c1.9,0,3.3-0.3,5.1-1.8c1-0.8,2.1-2.3,2.1-4.9C38.3,11.6,37.6,9.9,36.1,8.7z"/>
</g>
</svg>
