<?xml version="1.0" encoding="utf-8"?>
<!-- Generator: Adobe Illustrator 19.1.0, SVG Export Plug-In . SVG Version: 6.00 Build 0)  -->
<svg version="1.1" xmlns="http://www.w3.org/2000/svg" xmlns:xlink="http://www.w3.org/1999/xlink" x="0px" y="0px"
	 viewBox="0 0 35 35" style="enable-background:new 0 0 35 35;" xml:space="preserve">
<style type="text/css">
	.st0{display:none;}
	.st1{display:inline;}
	.st2{fill:none;}
</style>
<g id="Layer_1" class="st0">
	<path class="st1" d="M29.3,18.7c0,6.6-5.4,12-12,12s-12-5.4-12-12V9.3H1.2v9.4c0,8.9,7.2,16.1,16.1,16.1c8.9,0,16.1-7.2,16.1-16.1
		V9.3h-4.1V18.7z"/>
	<rect x="1.2" class="st1" width="32.2" height="4.7"/>
</g>
<g id="Layer_5" class="st0">
	<path class="st1" d="M28.4,18.9c0,5.9-4.8,10.7-10.7,10.7S7.1,24.7,7.1,18.9v-8.4H3.4v8.4c0,7.9,6.5,14.4,14.4,14.4
		c7.9,0,14.4-6.5,14.4-14.4v-8.4h-3.7V18.9z"/>
	<rect x="3.6" y="2.2" class="st1" width="28.3" height="4.2"/>
</g>
<g id="Layer_2" class="st0">
	<rect y="9.7" class="st1" width="34.1" height="4.2"/>
	<rect y="18.7" class="st1" width="34.1" height="4.2"/>
</g>
<g id="Layer_3" class="st0">
	<g class="st1">
		<path class="st2" d="M23.9,17.6c-4.4,0-6.8-1.9-8.7-3.5c-1.8-1.4-3.2-2.5-6.1-2.5c-3,0-4.4,1.1-6.1,2.5c-0.8,0.7-1.8,1.4-2.9,2
			v4.1c0.1-0.1,0.2-0.2,0.3-0.3c1.9-1.5,4.3-3.5,8.7-3.5c4.4,0,6.8,1.9,8.7,3.5c1.8,1.4,3.2,2.5,6.1,2.5c3,0,4.4-1.1,6.1-2.5
			c1.1-0.9,2.4-1.9,4.1-2.6V13c-0.5,0.3-1,0.7-1.5,1.1C30.7,15.7,28.3,17.6,23.9,17.6z"/>
		<path d="M23.9,13.6c-3,0-4.4-1.1-6.1-2.5C15.8,9.5,13.5,7.6,9,7.6c-4.4,0-6.8,1.9-8.7,3.5c-0.1,0.1-0.2,0.2-0.3,0.3v4.9
			c1.1-0.6,2.1-1.4,2.9-2C4.6,12.7,6,11.6,9,11.6c3,0,4.4,1.1,6.1,2.5c1.9,1.5,4.3,3.5,8.7,3.5c4.4,0,6.8-1.9,8.7-3.5
			c0.5-0.4,1-0.8,1.5-1.1V8.5c-1.7,0.7-3,1.7-4.1,2.6C28.3,12.5,26.9,13.6,23.9,13.6z"/>
		<path d="M30,20c-1.8,1.4-3.2,2.5-6.1,2.5c-3,0-4.4-1.1-6.1-2.5c-1.9-1.5-4.3-3.5-8.7-3.5c-4.4,0-6.8,1.9-8.7,3.5
			c-0.1,0.1-0.2,0.2-0.3,0.3v4.9c1.1-0.6,2.1-1.4,2.9-2C4.6,21.7,6,20.6,9,20.6c3,0,4.4,1.1,6.1,2.5c1.9,1.5,4.3,3.5,8.7,3.5
			c4.4,0,6.8-1.9,8.7-3.5c0.5-0.4,1-0.8,1.5-1.1v-4.5C32.4,18.2,31.1,19.2,30,20z"/>
	</g>
</g>
<g id="Layer_4" class="st0">
	<polygon class="st1" points="33.7,7.4 33.7,3.3 17.6,12.8 1.6,3.4 1.6,7.5 16,15.9 16,26.9 1.6,18.5 1.6,22.6 17.6,31.9 33.7,22.4 
		33.7,18.4 19,27 19,16 	"/>
</g>
<g id="Layer_6" class="st0">
	<rect x="7.8" y="26.9" class="st1" width="17.1" height="4.2"/>
	<path class="st1" d="M33.5,23.7H0V2.2h33.5V23.7z M3.5,20.2H30V5.7H3.5V20.2z"/>
</g>
<g id="Layer_7" class="st0">
	<g class="st1">
		<polygon points="32.2,18.2 34.3,15.5 34.3,10.2 29.8,15.6 		"/>
		<polygon points="0,15 2.6,18 5.1,15.5 0,9.7 		"/>
		<polygon points="31.2,19.2 28.8,16.6 25,12.4 32.1,4.1 27.5,4.1 22.7,9.7 17.7,4.2 12.1,10 6.7,4.1 2,4.1 9.7,12.6 6.1,16.5 
			3.6,19 0,22.8 0,27.9 6,21.6 8.4,19.1 12.1,15.2 14.5,12.6 17.6,9.4 20.4,12.4 22.7,15 26.5,19.2 28.9,21.8 34.3,27.8 34.3,22.6 
					"/>
		<polygon points="26.5,21.2 23.6,24.6 19.8,20.5 22.7,17 20.4,14.4 17.4,17.8 14.5,14.6 12.1,17.2 15.1,20.5 11.6,24.6 8.4,21.1 
			6,23.6 11.7,29.9 17.5,23.1 23.7,29.9 28.9,23.8 		"/>
	</g>
</g>
<g id="Layer_8" class="st0">
	<g class="st1">
		<polygon class="st2" points="16,6.2 1.6,14.7 1.6,21.6 16,13.1 		"/>
		<polygon class="st2" points="5,23.6 17.6,30.9 30,23.7 17.4,16.3 		"/>
		<polygon class="st2" points="19,13.2 30.3,19.8 30.3,12.8 19,6.3 		"/>
		<path d="M17.4,1.3L1.6,10.6v4.1L16,6.2v6.9L1.6,21.6v4.1l16,9.3l15.7-9.3V10.5L17.4,1.3z M17.6,30.9L5,23.6l12.4-7.3L30,23.7
			L17.6,30.9z M30.3,19.8L19,13.2v-7l11.3,6.6V19.8z"/>
	</g>
</g>
<g id="Layer_9" class="st0">
	<rect y="7.1" class="st1" width="25.1" height="4.2"/>
	<rect y="16.1" class="st1" width="25.1" height="4.2"/>
	<rect x="5" y="25.1" class="st1" width="15.1" height="4.2"/>
	<g class="st1">
		<path d="M34.1,8.7c-2.3-1.9-4.7-1.9-6.5-1.7v4c1.4-0.2,2.8-0.2,3.9,0.8c0.3,0.2,0.7,0.7,0.7,1.8c0,1.1-0.4,1.5-0.6,1.8
			c-1.2,1-2.7,0.9-4,0.8v4c0.4,0,1,0.1,1.5,0.1c1.9,0,3.3-0.3,5.1-1.8c1-0.8,2.1-2.3,2.1-4.9C36.3,11.6,35.6,9.9,34.1,8.7z"/>
	</g>
</g>
<g id="Layer_10" class="st0">
	<rect x="3.4" y="1" class="st1" width="27.5" height="4.2"/>
	<path class="st1" d="M17.2,6.8c-1,0-2,0.1-3,0.3c-2.7,0.6-5.1,2-7,4c-2.3,2.5-3.8,5.8-3.8,9.5c0,3.7,1.4,7,3.8,9.5
		c1.8,1.9,4.3,3.4,7,4c1,0.2,2,0.3,3,0.3c7.6,0,13.8-6.2,13.8-13.8C30.9,13,24.8,6.8,17.2,6.8z M21.1,30c-1.2,0.5-2.6,0.8-4,0.8
		c-1,0-2.1-0.2-3-0.5c-1.1-0.3-2.1-0.9-3-1.5C8.6,27,6.9,24,6.9,20.5c0-3.4,1.7-6.4,4.2-8.3c0.9-0.7,1.9-1.2,3-1.5
		c0.9-0.3,2-0.5,3-0.5c1.4,0,2.7,0.3,4,0.8c3.7,1.6,6.3,5.2,6.3,9.5C27.4,24.8,24.8,28.4,21.1,30z"/>
</g>
<g id="Layer_11">
	<g>
		<rect x="12.4" y="18" width="9.2" height="4.2"/>
		<rect x="24.6" y="18" width="9.3" height="4.2"/>
		<rect y="18" width="9.4" height="4.2"/>
		<rect y="9" width="9.4" height="4.2"/>
		<rect x="24.6" y="9" width="9.3" height="4.2"/>
		<rect x="12.4" y="9" width="9.2" height="4.2"/>
	</g>
</g>
<g id="Layer_12" class="st0">
	<rect x="2.1" y="30.6" class="st1" width="31.2" height="4.2"/>
	<path class="st1" d="M17.7,0L2.1,25.9h31.1L17.7,0z M17.7,6.8L27,22.4H8.3L17.7,6.8z"/>
</g>
</svg>
