<svg xmlns="http://www.w3.org/2000/svg" viewBox="-378 289 35 35"><style>.st0{fill:none;}</style><path d="M-374.6 302.5h28.3v4.2h-28.3z"/><path class="st0" d="M-360.3 292.7c-4.8 0-8.8 3.2-10.2 7.5h20.4c-1.3-4.3-5.4-7.5-10.2-7.5z"/><path d="M-360.3 292.7c4.8 0 8.8 3.2 10.2 7.5h3.8c-1.5-6.4-7.2-11.2-14-11.2s-12.6 4.8-14 11.2h3.8c1.4-4.3 5.5-7.5 10.2-7.5zM-353.3 313.6c-2.2 0-3.4-.8-4.3-1.4-.8-.5-1.4-.9-2.7-.9-1.3 0-1.9.4-2.7.9-1 .6-2.1 1.4-4.3 1.4-2.2 0-3.4-.8-4.3-1.4-.8-.5-1.4-.9-2.7-.9v-3c2.2 0 3.4.8 4.3 1.4.8.5 1.4.9 2.7.9 1.3 0 1.9-.4 2.7-.9 1-.6 2.1-1.4 4.3-1.4 2.2 0 3.4.8 4.3 1.4.8.5 1.4.9 2.7.9 1.3 0 1.9-.4 2.7-.9 1-.6 2.1-1.4 4.3-1.4v3c-1.3 0-1.9.4-2.7.9-.9.6-2.1 1.4-4.3 1.4z"/><g><path class="st0" d="M-352.8 319.8l1.8-4.6h-18.5l1.8 4.6z"/><path d="M-352.8 319.8h-14.9l-1.8-4.6h-4.6l2.9 7.5c.3.8 1.1 1.4 2 1.4h17.8c.9 0 1.7-.5 2-1.4l2.9-7.5h-4.6l-1.7 4.6z"/></g></svg>