<svg viewBox="0 0 34 20" xmlns="http://www.w3.org/2000/svg"><title>paint</title><g fill="none" fill-rule="evenodd"><path d="M23.9 10.6c-4.4 0-6.8-1.9-8.7-3.5-1.8-1.4-3.2-2.5-6.1-2.5-3 0-4.4 1.1-6.1 2.5-.8.7-1.8 1.4-2.9 2v4.1l.3-.3c1.9-1.5 4.3-3.5 8.7-3.5 4.4 0 6.8 1.9 8.7 3.5 1.8 1.4 3.2 2.5 6.1 2.5 3 0 4.4-1.1 6.1-2.5 1.1-.9 2.4-1.9 4.1-2.6V6c-.5.3-1 .7-1.5 1.1-1.9 1.6-4.3 3.5-8.7 3.5z"/><path d="M23.9 6.6c-3 0-4.4-1.1-6.1-2.5C15.8 2.5 13.5.6 9 .6 4.6.6 2.2 2.5.3 4.1l-.3.3v4.9c1.1-.6 2.1-1.4 2.9-2C4.6 5.7 6 4.6 9 4.6c3 0 4.4 1.1 6.1 2.5 1.9 1.5 4.3 3.5 8.7 3.5 4.4 0 6.8-1.9 8.7-3.5.5-.4 1-.8 1.5-1.1V1.5c-1.7.7-3 1.7-4.1 2.6-1.6 1.4-3 2.5-6 2.5z" fill="#CABD2C"/><path d="M30 13c-1.8 1.4-3.2 2.5-6.1 2.5-3 0-4.4-1.1-6.1-2.5-1.9-1.5-4.3-3.5-8.7-3.5-4.4 0-6.8 1.9-8.7 3.5l-.3.3v4.9c1.1-.6 2.1-1.4 2.9-2 1.6-1.5 3-2.6 6-2.6s4.4 1.1 6.1 2.5c1.9 1.5 4.3 3.5 8.7 3.5 4.4 0 6.8-1.9 8.7-3.5.5-.4 1-.8 1.5-1.1v-4.5c-1.6.7-2.9 1.7-4 2.5z" fill="#CABD2C"/></g></svg>