<svg viewBox="0 0 35 26" xmlns="http://www.w3.org/2000/svg"><g fill="#CABD2C" fill-rule="evenodd"><path d="M32.2 14.2l2.1-2.7V6.2l-4.5 5.4M0 11l2.6 3 2.5-2.5L0 5.7"/><path d="M31.2 15.2l-2.4-2.6L25 8.4 32.1.1h-4.6l-4.8 5.6-5-5.5L12.1 6 6.7.1H2l7.7 8.5-3.6 3.9L3.6 15 0 18.8v5.1l6-6.3 2.4-2.5 3.7-3.9 2.4-2.6 3.1-3.2 2.8 3 2.3 2.6 3.8 4.2 2.4 2.6 5.4 6v-5.2"/><path d="M26.5 17.2l-2.9 3.4-3.8-4.1 2.9-3.5-2.3-2.6-3 3.4-2.9-3.2-2.4 2.6 3 3.3-3.5 4.1-3.2-3.5L6 19.6l5.7 6.3 5.8-6.8 6.2 6.8 5.2-6.1"/></g></svg>