<svg xmlns="http://www.w3.org/2000/svg" viewBox="0 0 36 35"><g fill="none" fill-rule="evenodd"><path d="M17.8 27.4c-5.5 0-9.9-4.4-9.9-9.9s4.4-9.9 9.9-9.9 9.9 4.4 9.9 9.9-4.5 9.9-9.9 9.9z"/><path d="M17.8 11.4c-3.4 0-6.2 2.8-6.2 6.2 0 3.4 2.8 6.2 6.2 6.2 3.4 0 6.2-2.8 6.2-6.2-.1-3.5-2.8-6.2-6.2-6.2z"/><path fill="#CABD2C" d="M17.8 7.6c-5.5 0-9.9 4.4-9.9 9.9s4.4 9.9 9.9 9.9 9.9-4.4 9.9-9.9-4.5-9.9-9.9-9.9zm0 16.1c-3.4 0-6.2-2.8-6.2-6.2 0-3.4 2.8-6.2 6.2-6.2 3.4 0 6.2 2.8 6.2 6.2-.1 3.4-2.8 6.2-6.2 6.2z"/><path fill="#CABD2C" d="M31.4 4.1v23.3h4.1V0H.5v4.1h30.9zM4.6 30.9V7.6H.5V35h35v-4.1H4.6z"/></g></svg>