<svg xmlns="http://www.w3.org/2000/svg" viewBox="0 0 30 36"><g fill="none" fill-rule="evenodd"><path fill="rgb(202,189,44)" d="M.9 14h28.3v4.2H.9"/><path d="M15.2 4.2c-4.8 0-8.8 3.2-10.2 7.5h20.4C24.1 7.4 20 4.2 15.2 4.2z"/><path fill="rgb(202,189,44)" d="M15.2 4.2c4.8 0 8.8 3.2 10.2 7.5h3.8C27.7 5.3 22 .5 15.2.5S2.6 5.3 1.2 11.7H5c1.4-4.3 5.5-7.5 10.2-7.5zm7 20.9c-2.2 0-3.4-.8-4.3-1.4-.8-.5-1.4-.9-2.7-.9-1.3 0-1.9.4-2.7.9-1 .6-2.1 1.4-4.3 1.4-2.2 0-3.4-.8-4.3-1.4-.8-.5-1.4-.9-2.7-.9v-3c2.2 0 3.4.8 4.3 1.4.8.5 1.4.9 2.7.9 1.3 0 1.9-.4 2.7-.9 1-.6 2.1-1.4 4.3-1.4 2.2 0 3.4.8 4.3 1.4.8.5 1.4.9 2.7.9 1.3 0 1.9-.4 2.7-.9 1-.6 2.1-1.4 4.3-1.4v3c-1.3 0-1.9.4-2.7.9-.9.6-2.1 1.4-4.3 1.4z"/><path d="M22.7 31.3l1.8-4.6H6l1.8 4.6"/><path fill="rgb(202,189,44)" d="M22.7 31.3H7.8L6 26.7H1.4l2.9 7.5c.3.8 1.1 1.4 2 1.4h17.8c.9 0 1.7-.5 2-1.4l2.9-7.5h-4.6l-1.7 4.6z"/></g></svg>