<svg id="Layer_1" xmlns="http://www.w3.org/2000/svg" viewBox="-2 0 35 35"><style>.st0{fill:none;}</style><g id="Layer_3"><path class="st0" d="M21.9 17.6c-4.4 0-6.8-1.9-8.7-3.5-1.8-1.4-3.2-2.5-6.1-2.5-3 0-4.4 1.1-6.1 2.5-.8.7-1.8 1.4-2.9 2v4.1l.3-.3c1.9-1.5 4.3-3.5 8.7-3.5s6.8 1.9 8.7 3.5c1.8 1.4 3.2 2.5 6.1 2.5 3 0 4.4-1.1 6.1-2.5 1.1-.9 2.4-1.9 4.1-2.6V13c-.5.3-1 .7-1.5 1.1-1.9 1.6-4.3 3.5-8.7 3.5z"/><path d="M21.9 13.6c-3 0-4.4-1.1-6.1-2.5-2-1.6-4.3-3.5-8.8-3.5-4.4 0-6.8 1.9-8.7 3.5l-.3.3v4.9c1.1-.6 2.1-1.4 2.9-2C2.6 12.7 4 11.6 7 11.6s4.4 1.1 6.1 2.5c1.9 1.5 4.3 3.5 8.7 3.5s6.8-1.9 8.7-3.5c.5-.4 1-.8 1.5-1.1V8.5c-1.7.7-3 1.7-4.1 2.6-1.6 1.4-3 2.5-6 2.5z"/><path d="M28 20c-1.8 1.4-3.2 2.5-6.1 2.5-3 0-4.4-1.1-6.1-2.5-1.9-1.5-4.3-3.5-8.7-3.5S.3 18.4-1.6 20l-.3.3v4.9c1.1-.6 2.1-1.4 2.9-2 1.6-1.5 3-2.6 6-2.6s4.4 1.1 6.1 2.5c1.9 1.5 4.3 3.5 8.7 3.5s6.8-1.9 8.7-3.5c.5-.4 1-.8 1.5-1.1v-4.5c-1.6.7-2.9 1.7-4 2.5z"/></g></svg>